<?xml version="1.0" encoding="utf-8"?>
<!-- Generator: Adobe Illustrator 18.1.1, SVG Export Plug-In . SVG Version: 6.00 Build 0)  -->
<svg version="1.1" id="Layer_1" xmlns="http://www.w3.org/2000/svg" xmlns:xlink="http://www.w3.org/1999/xlink" x="0px" y="0px"
	 viewBox="-164 42.3 512 512" enable-background="new -164 42.3 512 512" xml:space="preserve">
<g id="svgGrid" display="none">
	<line display="inline" fill="none" stroke="#B35047" x1="-132" y1="42.3" x2="-132" y2="554.3"/>
	<line display="inline" fill="none" stroke="#B35047" x1="-100" y1="42.3" x2="-100" y2="554.3"/>
	<line display="inline" fill="none" stroke="#B35047" x1="-68" y1="42.3" x2="-68" y2="554.3"/>
	<line display="inline" fill="none" stroke="#B35047" x1="-36" y1="42.3" x2="-36" y2="554.3"/>
	<line display="inline" fill="none" stroke="#B35047" x1="-4" y1="42.3" x2="-4" y2="554.3"/>
	<line display="inline" fill="none" stroke="#B35047" x1="28" y1="42.3" x2="28" y2="554.3"/>
	<line display="inline" fill="none" stroke="#B35047" x1="60" y1="42.3" x2="60" y2="554.3"/>
	<line display="inline" fill="none" stroke="#B35047" x1="92" y1="42.3" x2="92" y2="554.3"/>
	<line display="inline" fill="none" stroke="#B35047" x1="124" y1="42.3" x2="124" y2="554.3"/>
	<line display="inline" fill="none" stroke="#B35047" x1="156" y1="42.3" x2="156" y2="554.3"/>
	<line display="inline" fill="none" stroke="#B35047" x1="188" y1="42.3" x2="188" y2="554.3"/>
	<line display="inline" fill="none" stroke="#B35047" x1="220" y1="42.3" x2="220" y2="554.3"/>
	<line display="inline" fill="none" stroke="#B35047" x1="252" y1="42.3" x2="252" y2="554.3"/>
	<line display="inline" fill="none" stroke="#B35047" x1="284" y1="42.3" x2="284" y2="554.3"/>
	<line display="inline" fill="none" stroke="#B35047" x1="316" y1="42.3" x2="316" y2="554.3"/>
	<line display="inline" fill="none" stroke="#B35047" x1="-164" y1="74.3" x2="348" y2="74.3"/>
	<line display="inline" fill="none" stroke="#B35047" x1="-164" y1="106.3" x2="348" y2="106.3"/>
	<line display="inline" fill="none" stroke="#B35047" x1="-164" y1="138.3" x2="348" y2="138.3"/>
	<line display="inline" fill="none" stroke="#B35047" x1="-164" y1="170.3" x2="348" y2="170.3"/>
	<line display="inline" fill="none" stroke="#B35047" x1="-164" y1="202.3" x2="348" y2="202.3"/>
	<line display="inline" fill="none" stroke="#B35047" x1="-164" y1="234.3" x2="348" y2="234.3"/>
	<line display="inline" fill="none" stroke="#B35047" x1="-164" y1="266.3" x2="348" y2="266.3"/>
	<line display="inline" fill="none" stroke="#B35047" x1="-164" y1="298.3" x2="348" y2="298.3"/>
	<line display="inline" fill="none" stroke="#B35047" x1="-164" y1="330.3" x2="348" y2="330.3"/>
	<line display="inline" fill="none" stroke="#B35047" x1="-164" y1="362.3" x2="348" y2="362.3"/>
	<line display="inline" fill="none" stroke="#B35047" x1="-164" y1="394.3" x2="348" y2="394.3"/>
	<line display="inline" fill="none" stroke="#B35047" x1="-164" y1="426.3" x2="348" y2="426.3"/>
	<line display="inline" fill="none" stroke="#B35047" x1="-164" y1="458.3" x2="348" y2="458.3"/>
	<line display="inline" fill="none" stroke="#B35047" x1="-164" y1="490.3" x2="348" y2="490.3"/>
	<line display="inline" fill="none" stroke="#B35047" x1="-164" y1="522.3" x2="348" y2="522.3"/>
	<rect x="-164" y="42.3" display="inline" fill="none" stroke="#B35047" width="512" height="512"/>
</g>
<path d="M188,42.3l-160,160h-96v192l256-256V42.3z M313.1,77.2l-442.2,442.2l34.9,34.9L46.9,413.2L188,554.3V272.1l160-160
	L313.1,77.2z"/>
</svg>
