<?xml version="1.0" encoding="utf-8"?>
<!-- Generator: Adobe Illustrator 18.1.1, SVG Export Plug-In . SVG Version: 6.00 Build 0)  -->
<svg version="1.1" id="Layer_1" xmlns="http://www.w3.org/2000/svg" xmlns:xlink="http://www.w3.org/1999/xlink" x="0px" y="0px"
	 viewBox="-148 42.3 544 512" enable-background="new -148 42.3 544 512" xml:space="preserve">
<g id="svgGrid" display="none">
	<line display="inline" fill="none" stroke="#B35047" x1="-116" y1="42.3" x2="-116" y2="554.3"/>
	<line display="inline" fill="none" stroke="#B35047" x1="-84" y1="42.3" x2="-84" y2="554.3"/>
	<line display="inline" fill="none" stroke="#B35047" x1="-52" y1="42.3" x2="-52" y2="554.3"/>
	<line display="inline" fill="none" stroke="#B35047" x1="-20" y1="42.3" x2="-20" y2="554.3"/>
	<line display="inline" fill="none" stroke="#B35047" x1="12" y1="42.3" x2="12" y2="554.3"/>
	<line display="inline" fill="none" stroke="#B35047" x1="44" y1="42.3" x2="44" y2="554.3"/>
	<line display="inline" fill="none" stroke="#B35047" x1="76" y1="42.3" x2="76" y2="554.3"/>
	<line display="inline" fill="none" stroke="#B35047" x1="108" y1="42.3" x2="108" y2="554.3"/>
	<line display="inline" fill="none" stroke="#B35047" x1="140" y1="42.3" x2="140" y2="554.3"/>
	<line display="inline" fill="none" stroke="#B35047" x1="172" y1="42.3" x2="172" y2="554.3"/>
	<line display="inline" fill="none" stroke="#B35047" x1="204" y1="42.3" x2="204" y2="554.3"/>
	<line display="inline" fill="none" stroke="#B35047" x1="236" y1="42.3" x2="236" y2="554.3"/>
	<line display="inline" fill="none" stroke="#B35047" x1="268" y1="42.3" x2="268" y2="554.3"/>
	<line display="inline" fill="none" stroke="#B35047" x1="300" y1="42.3" x2="300" y2="554.3"/>
	<line display="inline" fill="none" stroke="#B35047" x1="332" y1="42.3" x2="332" y2="554.3"/>
	<line display="inline" fill="none" stroke="#B35047" x1="-148" y1="74.3" x2="364" y2="74.3"/>
	<line display="inline" fill="none" stroke="#B35047" x1="-148" y1="106.3" x2="364" y2="106.3"/>
	<line display="inline" fill="none" stroke="#B35047" x1="-148" y1="138.3" x2="364" y2="138.3"/>
	<line display="inline" fill="none" stroke="#B35047" x1="-148" y1="170.3" x2="364" y2="170.3"/>
	<line display="inline" fill="none" stroke="#B35047" x1="-148" y1="202.3" x2="364" y2="202.3"/>
	<line display="inline" fill="none" stroke="#B35047" x1="-148" y1="234.3" x2="364" y2="234.3"/>
	<line display="inline" fill="none" stroke="#B35047" x1="-148" y1="266.3" x2="364" y2="266.3"/>
	<line display="inline" fill="none" stroke="#B35047" x1="-148" y1="298.3" x2="364" y2="298.3"/>
	<line display="inline" fill="none" stroke="#B35047" x1="-148" y1="330.3" x2="364" y2="330.3"/>
	<line display="inline" fill="none" stroke="#B35047" x1="-148" y1="362.3" x2="364" y2="362.3"/>
	<line display="inline" fill="none" stroke="#B35047" x1="-148" y1="394.3" x2="364" y2="394.3"/>
	<line display="inline" fill="none" stroke="#B35047" x1="-148" y1="426.3" x2="364" y2="426.3"/>
	<line display="inline" fill="none" stroke="#B35047" x1="-148" y1="458.3" x2="364" y2="458.3"/>
	<line display="inline" fill="none" stroke="#B35047" x1="-148" y1="490.3" x2="364" y2="490.3"/>
	<line display="inline" fill="none" stroke="#B35047" x1="-148" y1="522.3" x2="364" y2="522.3"/>
	<rect x="-148" y="42.3" display="inline" fill="none" stroke="#B35047" width="512" height="512"/>
</g>
<path d="M297,503.3c-6.1,0-12.3-2.3-17-7c-9.4-9.4-9.4-24.6,0-33.9c43.8-43.8,68-102.1,68-164c0-62-24.1-120.2-68-164
	c-9.4-9.4-9.4-24.6,0-33.9s24.6-9.4,33.9,0c52.9,52.9,82,123.2,82,198c0,74.8-29.1,145.1-82,198C309.3,501,303.2,503.3,297,503.3z
	 M211.8,458c-6.1,0-12.3-2.3-17-7c-9.4-9.4-9.4-24.6,0-33.9c65.5-65.5,65.5-172.1,0-237.6c-9.4-9.4-9.4-24.6,0-33.9
	c9.4-9.4,24.6-9.4,33.9,0c40.8,40.8,63.3,95,63.3,152.7c0,57.7-22.5,111.9-63.3,152.7C224,455.7,217.9,458,211.8,458z M126.5,412.8
	c-6.1,0-12.3-2.3-17-7c-9.4-9.4-9.4-24.6,0-33.9c40.5-40.5,40.5-106.5,0-147.1c-9.4-9.4-9.4-24.6,0-33.9c9.4-9.4,24.6-9.4,33.9,0
	c59.3,59.3,59.3,155.7,0,215C138.8,410.4,132.7,412.8,126.5,412.8z M52.7,81.6C65.5,68.8,76,73.1,76,91.3v414
	c0,18.1-10.5,22.5-23.3,9.7L-68,394.3h-80v-192h80L52.7,81.6z"/>
</svg>
